<svg width="403" height="300" viewBox="0 0 403 300" fill="none" xmlns="http://www.w3.org/2000/svg">
<path d="M0 300V3.85603H55.3932V52.0565H59.0603C65.2366 35.7326 75.3373 23.0077 89.3625 13.8818C103.388 4.62725 120.179 0 139.738 0C159.553 0 176.152 4.62725 189.534 13.8818C203.044 23.1362 213.016 35.8612 219.45 52.0565H222.538C229.615 36.2468 240.874 23.6504 256.314 14.2673C271.755 4.75578 290.155 0 311.514 0C338.407 0 360.345 8.41902 377.33 25.2571C394.443 42.0951 403 67.4807 403 101.414V300H345.291V106.812C345.291 86.7609 339.822 72.2365 328.885 63.2391C317.948 54.2416 304.888 49.7429 289.704 49.7429C270.918 49.7429 256.314 55.527 245.892 67.0951C235.469 78.5347 230.258 93.2519 230.258 111.247V300H172.742V103.149C172.742 87.0823 167.724 74.1645 157.687 64.3959C147.651 54.6272 134.591 49.7429 118.507 49.7429C107.57 49.7429 97.4689 52.635 88.2045 58.419C79.0688 64.0745 71.6702 71.9794 66.0086 82.1337C60.4757 92.2879 57.7093 104.049 57.7093 117.416V300H0Z" fill="white"/>
</svg>
