<svg width="436" height="325" viewBox="0 0 436 325" fill="none" xmlns="http://www.w3.org/2000/svg">
<path d="M0 325V4.17737H59.9291V56.3946H63.8966C70.5785 38.7104 81.5064 24.925 96.6801 15.0386C111.854 5.01286 130.02 0 151.18 0C172.618 0 190.576 5.01286 205.054 15.0386C219.67 25.0642 230.459 38.8496 237.42 56.3946H240.761C248.417 39.2673 260.598 25.6212 277.303 15.4563C294.008 5.15209 313.914 0 337.023 0C366.117 0 389.852 9.12061 408.228 27.3618C426.743 45.603 436 73.1041 436 109.865V325H373.565V115.713C373.565 93.991 367.649 78.2562 355.816 68.509C343.983 58.7618 329.854 53.8882 313.427 53.8882C293.103 53.8882 277.303 60.1542 266.027 72.6864C254.751 85.0793 249.113 101.023 249.113 120.517V325H186.887V111.745C186.887 94.3391 181.458 80.3449 170.6 69.7622C159.741 59.1795 145.612 53.8882 128.211 53.8882C116.378 53.8882 105.45 57.0212 95.4272 63.2873C85.5434 69.4141 77.539 77.9777 71.4138 88.9782C65.4278 99.9786 62.4349 112.72 62.4349 127.201V325H0Z" fill="black"/>
</svg>
