<svg width="65" height="20" viewBox="0 0 65 20" fill="none" xmlns="http://www.w3.org/2000/svg">
    <path
        d="M0 16.9898V4.67557H2.31111V6.67985H2.46411C2.7218 6.00107 3.14322 5.47194 3.72838 5.09246C4.31354 4.70764 5.01412 4.51523 5.83012 4.51523C6.65686 4.51523 7.34939 4.70764 7.9077 5.09246C8.47139 5.47728 8.88744 6.00641 9.15587 6.67985H9.28471C9.57997 6.02245 10.0497 5.49866 10.6939 5.1085C11.3381 4.71299 12.1058 4.51523 12.997 4.51523C14.119 4.51523 15.0343 4.86531 15.7429 5.56547C16.4569 6.26563 16.8139 7.32122 16.8139 8.73223V16.9898H14.4062V8.95671C14.4062 8.12293 14.178 7.51897 13.7217 7.14484C13.2654 6.77071 12.7205 6.58364 12.087 6.58364C11.3032 6.58364 10.6939 6.82416 10.2591 7.30518C9.82423 7.78087 9.60681 8.39284 9.60681 9.1411V16.9898H7.20712V8.80438C7.20712 8.13629 6.99775 7.59914 6.57902 7.19294C6.16028 6.78675 5.61538 6.58364 4.94433 6.58364C4.48801 6.58364 4.06659 6.7039 3.68006 6.94441C3.2989 7.17958 2.99022 7.50828 2.75401 7.93052C2.52316 8.35275 2.40774 8.8418 2.40774 9.39765V16.9898H0Z"
        fill="currentColor" />
    <path
        d="M25.7238 14.2282C24.5052 14.2282 23.4556 13.969 22.5752 13.4506C21.7002 12.9268 21.0237 12.1919 20.5459 11.2459C20.0735 10.2945 19.8373 9.18012 19.8373 7.90273C19.8373 6.64137 20.0735 5.52966 20.5459 4.56761C21.0237 3.60556 21.6894 2.85462 22.543 2.3148C23.4019 1.77499 24.4058 1.50508 25.5547 1.50508C26.2526 1.50508 26.929 1.61999 27.584 1.84981C28.2389 2.07964 28.8267 2.44041 29.3475 2.93212C29.8682 3.42384 30.2789 4.06253 30.5795 4.84821C30.8802 5.62854 31.0305 6.57723 31.0305 7.69428V8.54409H21.1982V6.74826H28.6711C28.6711 6.11758 28.5422 5.55906 28.2845 5.07269C28.0269 4.58097 27.6645 4.19348 27.1974 3.91021C26.7357 3.62694 26.1935 3.4853 25.5708 3.4853C24.8944 3.4853 24.3038 3.65099 23.7992 3.98236C23.2999 4.30839 22.9134 4.73597 22.6396 5.2651C22.3712 5.78888 22.237 6.3581 22.237 6.97274V8.37574C22.237 9.19882 22.3819 9.89898 22.6718 10.4762C22.9671 11.0534 23.3778 11.4944 23.9039 11.799C24.43 12.0983 25.0447 12.248 25.748 12.248C26.2043 12.248 26.6203 12.1839 26.9961 12.0556C27.3719 11.922 27.6967 11.7242 27.9705 11.4623C28.2443 11.2004 28.4536 10.8771 28.5986 10.4922L30.8775 10.9011C30.695 11.5692 30.3675 12.1545 29.8951 12.6569C29.428 13.1539 28.8402 13.5414 28.1315 13.8193C27.4283 14.0919 26.6257 14.2282 25.7238 14.2282Z"
        fill="currentColor" />
    <path
        d="M36.462 12.6884V20H34.0543V7.68573H36.3654V9.69001H36.5184C36.8029 9.03795 37.2485 8.51416 37.8551 8.11865C38.4671 7.72314 39.2375 7.52539 40.1662 7.52539C41.0091 7.52539 41.7472 7.70176 42.3807 8.05452C43.0142 8.40192 43.5054 8.92036 43.8543 9.60983C44.2033 10.2993 44.3778 11.1518 44.3778 12.1673V20H41.97V12.4559C41.97 11.5633 41.7365 10.8658 41.2694 10.3634C40.8024 9.85569 40.1609 9.60182 39.3449 9.60182C38.7865 9.60182 38.29 9.72207 37.8551 9.96259C37.4256 10.2031 37.0847 10.5559 36.8324 11.0208C36.5855 11.4805 36.462 12.0363 36.462 12.6884Z"
        fill="currentColor" />
    <path
        d="M47.7069 17.0764V4.76216H50.1147V17.0764H47.7069ZM48.9229 2.86211C48.5041 2.86211 48.1445 2.72314 47.8438 2.44522C47.5486 2.16195 47.4009 1.82523 47.4009 1.43506C47.4009 1.03955 47.5486 0.702833 47.8438 0.424906C48.1445 0.141635 48.5041 0 48.9229 0C49.3416 0 49.6986 0.141635 49.9939 0.424906C50.2945 0.702833 50.4448 1.03955 50.4448 1.43506C50.4448 1.82523 50.2945 2.16195 49.9939 2.44522C49.6986 2.72314 49.3416 2.86211 48.9229 2.86211Z"
        fill="currentColor" />
    <path
        d="M59.2343 18.7435C58.0747 18.7435 57.0628 18.4789 56.1984 17.9498C55.3341 17.4206 54.6631 16.6804 54.1853 15.729C53.7075 14.7777 53.4686 13.666 53.4686 12.3939C53.4686 11.1165 53.7075 9.99946 54.1853 9.04276C54.6631 8.08605 55.3341 7.34313 56.1984 6.814C57.0628 6.28487 58.0747 6.02031 59.2343 6.02031C60.3939 6.02031 61.4058 6.28487 62.2702 6.814C63.1345 7.34313 63.8055 8.08605 64.2833 9.04276C64.7611 9.99946 65 11.1165 65 12.3939C65 13.666 64.7611 14.7777 64.2833 15.729C63.8055 16.6804 63.1345 17.4206 62.2702 17.9498C61.4058 18.4789 60.3939 18.7435 59.2343 18.7435ZM59.2424 16.7312C59.9939 16.7312 60.6167 16.5334 61.1106 16.1379C61.6045 15.7424 61.9695 15.2159 62.2057 14.5585C62.4473 13.9011 62.5681 13.1769 62.5681 12.3859C62.5681 11.6002 62.4473 10.8787 62.2057 10.2213C61.9695 9.55852 61.6045 9.02672 61.1106 8.62587C60.6167 8.22501 59.9939 8.02458 59.2424 8.02458C58.4854 8.02458 57.8573 8.22501 57.358 8.62587C56.8641 9.02672 56.4964 9.55852 56.2548 10.2213C56.0186 10.8787 55.9005 11.6002 55.9005 12.3859C55.9005 13.1769 56.0186 13.9011 56.2548 14.5585C56.4964 15.2159 56.8641 15.7424 57.358 16.1379C57.8573 16.5334 58.4854 16.7312 59.2424 16.7312Z"
        fill="currentColor" />
</svg>